<?xml version="1.0" encoding="utf-8"?>
<!-- Generator: Adobe Illustrator 16.0.0, SVG Export Plug-In . SVG Version: 6.00 Build 0)  -->
<!DOCTYPE svg PUBLIC "-//W3C//DTD SVG 1.1//EN" "http://www.w3.org/Graphics/SVG/1.1/DTD/svg11.dtd">
<svg version="1.1" id="Layer_1" xmlns="http://www.w3.org/2000/svg" xmlns:xlink="http://www.w3.org/1999/xlink" x="0px" y="0px"
	 width="100px" height="78px" viewBox="0 0 100 78" enable-background="new 0 0 100 78" xml:space="preserve">
<g>
	<polyline points="58.967,55.786 59.248,55.923 59.197,56.079 58.906,56.444 59.391,56.668 59.543,56.819 59.598,57.188 
		59.559,57.348 59.387,57.491 59.348,57.649 59.52,58.29 59.441,59.51 59.477,59.684 59.637,59.842 60.448,61.489 60.664,61.678 
		61.227,61.819 61.686,62.327 61.994,62.392 62.611,62.353 63.021,62.651 63.154,62.653 63.423,62.554 63.521,62.608 64.059,63.871 
		74.074,69.993 73.938,67.104 73.825,66.815 73.275,66.174 73.09,65.325 73.125,65.088 73.203,64.946 73.566,64.629 73.592,64.965 
		73.443,65.524 73.65,65.889 74.217,66.44 74.342,66.7 74.477,69.616 72.865,74.583 73.166,74.36 73.823,72.991 74.178,72.804 
		75.098,72.69 75.469,72.76 75.211,72.136 75.275,71.985 75.572,71.975 75.641,71.905 75.708,71.603 76.553,70.62 76.977,70.588 
		77.343,69.967 77.316,69.892 77.193,69.792 77.355,69.655 77.209,69.315 77.119,69.248 76.4,68.108 79.42,66.192 78.656,64.901 
		79.467,52.087 79.13,51.671 82.132,40.47 82.342,40.196 82.003,39.149 82.42,26.362 82.327,26.222 82.141,26.062 82.039,25.912 
		81.805,25.188 81.732,25.113 81.438,25.025 81.166,25.052 81.091,25.09 81.027,25.148 80.839,25.717 80.727,25.863 80.588,25.967 
		80.395,26.044 80.372,26.035 80.186,25.621 80.218,24.684 80.92,22.766 80.917,22.078 80.654,21.574 80.639,21.469 80.752,20.726 
		80.713,20.532 80.581,20.312 80.307,18.167 79.99,17.62 79.99,17.499 80.816,14.846 81.368,14.423 81.432,14.296 81.328,12.148 
		81.822,10.717 81.74,10.021 80.863,8.285 80.748,7.254 81.268,4.406 81.202,4.245 80.848,3.795 80.773,3.523 80.881,2.878 
		81.24,2.159 81.294,1.783 81.102,0.778 61.678,0.692 56.823,3.285 50.231,9.793 50.394,10.055 50.504,10.692 50.372,10.936 
		49.556,11.481 49.507,11.752 49.46,11.841 43.078,16.231 42.967,16.483 43.036,16.86 43.207,16.982 43.432,17.05 43.657,17.268 
		43.72,17.464 43.639,17.717 43.657,17.855 43.75,17.953 43.864,17.97 43.96,17.887 44.002,17.687 44.122,17.452 44.945,17.04 
		45.056,17.28 45.56,17.184 45.737,17.377 45.611,17.522 45.557,17.747 45.758,17.568 45.872,17.523 45.998,17.509 45.773,17.97 
		45.596,18.153 45.263,18.321 44.915,18.732 44.993,18.826 45.78,18.826 46.014,18.751 46.362,18.422 46.563,18.348 46.773,18.405 
		46.866,18.551 46.836,18.747 46.69,18.957 46.498,19.059 46.081,19.134 45.913,19.305 45.756,19.997 45.008,20.74 44.867,20.988 
		44.522,20.74 44.702,20.274 44.078,20.579 43.909,20.741 43.765,21.019 43.84,21.142 44.026,21.231 44.521,21.707 44.944,23.139 
		44.827,23.476 44.944,24.695 45.173,24.287 45.311,24.237 45.473,24.339 44.935,25.123 44.872,25.507 45.22,25.766 44.482,26.603 
		43.37,26.906 42.518,26.641 42.292,26.679 41.391,27.542 40.07,28.182 39.149,28.978 38.579,30.065 38.276,29.852 38.096,29.807 
		38.018,30 37.952,30.073 35.833,30.724 35.767,30.772 35.689,30.927 35.68,31.245 35.632,31.354 35.635,31.407 35.617,31.44 
		35.371,31.498 35.254,31.461 35.155,31.377 35.068,31.246 35.161,31.01 30.31,30.772 28.143,31.483 27.57,31.479 27.048,31.231 
		26.142,30.407 25.797,30.303 25.794,30.116 25.479,29.964 20.953,29.108 19.431,29.356 17.492,29.073 8.904,31.114 8.99,33.378 
		8.81,33.839 8.817,34.091 9.317,34.427 10.725,34.597 11.067,35.03 11.004,35.415 10.56,35.885 10.455,36.274 10.509,36.425 
		10.747,36.644 11.325,38.577 11.284,39.388 11.16,39.694 10.968,39.919 9.254,40.837 8.432,42.202 8.162,42.327 7.744,43.112 
		7.675,43.183 6.676,43.528 6.415,43.896 4.989,44.674 4.665,45.088 4.29,45.278 3.696,46.087 0,48.45 0,53.014 55.962,53.056 
		55.955,53.284 56.924,53.893 57.098,55.006 57.307,55.167 58.006,55.051 	"/>
	<polygon points="99.777,68.277 99.432,68.242 99.176,68.285 99.225,68.457 99.225,68.562 98.973,68.518 98.784,68.422 
		98.641,68.457 98.532,68.799 98.289,68.713 97.568,69.246 96.818,69.518 96.706,69.427 96.234,68.623 96.057,68.556 95.921,68.756 
		95.834,69.369 95.361,68.86 95.188,68.756 95.07,68.864 95.014,69.041 95.018,69.131 94.521,69.371 94.363,69.371 94.232,69.062 
		94.13,68.943 93.934,69.029 94.064,69.352 93.871,69.545 93.543,69.693 92.618,70.49 92.586,70.678 92.609,70.881 92.415,71.037 
		91.85,71.205 91.573,71.16 91.318,71.043 91.07,71.004 90.809,71.205 90.699,71.115 90.573,71.07 90.298,71.078 90.422,70.869 
		90.91,70.467 91.229,70.358 91.499,70.055 91.613,69.789 91.68,69.713 91.738,69.699 91.881,69.725 91.938,69.713 92.298,69.41 
		92.418,69.369 92.547,69.684 92.66,69.805 92.715,69.654 92.648,69.274 92.666,69.113 92.813,68.926 92.93,68.873 93.2,68.873 
		93.329,68.801 93.139,68.685 92.982,68.457 94.348,67.336 94.537,67.648 94.906,67.453 95.074,67.278 95.139,67.09 95.07,66.94 
		94.909,66.854 94.711,66.826 94.537,66.851 93.66,67.353 93.162,67.877 92.316,68.168 92.083,68.592 91.336,68.927 90.534,69.711 
		84.48,70.055 84.547,70.235 84.514,70.35 84.396,70.403 84.23,70.395 84.301,70.053 84.118,69.986 83.616,70.172 83.674,70.449 
		83.532,70.709 83.29,70.895 82.573,71.08 80.745,70.418 80.473,70.418 80.366,70.549 80.588,70.867 80.753,70.627 80.943,70.728 
		81.064,70.979 81.018,71.211 80.859,71.213 80.404,71.064 80.23,71.211 79.975,70.971 80.093,70.66 79.873,70.451 79.555,70.443 
		79.369,70.742 79.411,70.916 79.615,71.191 79.627,71.32 79.525,71.393 79.207,71.227 79.029,71.207 79.061,71.129 79.105,71.08 
		78.438,70.906 77.729,71.099 77.299,71.627 77.467,72.455 77.284,72.478 76.594,71.649 76.438,71.771 76.297,71.971 76.275,72.147 
		76.688,72.315 76.732,72.511 76.654,72.705 76.51,72.795 76.188,72.304 75.99,72.33 75.906,72.488 75.902,73.136 75.609,72.916 
		75.197,72.799 74.835,72.877 74.693,73.246 74.1,73.104 73.752,73.324 73.146,74.463 73.016,74.541 72.952,74.612 72.865,74.838 
		72.443,75.414 72.488,75.801 72.854,76.225 72.789,76.559 73.648,76.436 73.997,76.209 74.156,76.215 74.273,76.272 74.379,76.267 
		74.514,76.096 74.354,75.873 74.168,75.756 74.168,75.645 74.52,75.389 74.994,75.293 75.588,75.438 75.834,75.584 75.811,75.759 
		75.896,75.908 75.902,75.983 75.659,76.002 73.73,76.789 74.154,76.875 75.945,76.326 78.236,76.326 78.236,76.211 77.896,76.145 
		76.945,76.259 76.674,76.1 76.749,75.845 80.494,75.191 81.238,74.797 82.053,74.615 82.496,74.281 82.721,74.278 83.575,74.512 
		83.749,74.439 83.72,74.084 83.791,73.938 83.95,73.901 84.402,74.061 85.102,73.899 85.266,73.754 86.482,73.607 86.795,73.41 
		86.947,73.379 87.249,73.571 87.395,73.607 87.665,73.553 87.854,73.406 87.908,73.187 87.779,72.914 89.945,72.752 89.826,72.894 
		88.881,73.177 88.838,73.229 88.865,73.318 88.939,73.384 88.997,73.354 89.052,73.291 91.348,72.541 91.992,72.102 91.984,71.948 
		91.898,71.787 91.869,71.615 91.92,71.479 92.068,71.424 92.393,71.457 92.539,71.562 92.527,71.742 92.371,72.004 99.91,68.504 
		100.001,68.345 	"/>
</g>
</svg>
